<svg width="1440" height="160" viewBox="0 0 1440 160" fill="none" xmlns="http://www.w3.org/2000/svg">
<path d="M0 112L24 93.35C48 74.5 96 37.5 144 26.65C192 16 240 32 288 50.65C336 69.5 384 90.5 432 93.35C480 96 528 80 576 64C624 48 672 32 720 40C768 48 816 80 864 90.65C912 101.5 960 90.5 1008 90.65C1056 90.5 1104 101.5 1152 98.65C1200 96 1248 80 1296 77.35C1344 74.5 1392 85.5 1416 90.65L1440 96V160H1416C1392 160 1344 160 1296 160C1248 160 1200 160 1152 160C1104 160 1056 160 1008 160C960 160 912 160 864 160C816 160 768 160 720 160C672 160 624 160 576 160C528 160 480 160 432 160C384 160 336 160 288 160C240 160 192 160 144 160C96 160 48 160 24 160H0V112Z" fill="#999B84"/>
</svg>
