<svg width="1440" height="320" viewBox="0 0 1440 320" fill="none" xmlns="http://www.w3.org/2000/svg">
<path d="M0 320L21.8 272C43.6 224 87 128 131 101.3C174.5 75.0001 218 117 262 154.7C305.5 192 349 224 393 224C436.4 224 480 192 524 176C567.3 160 611 160 655 181.3C698.2 203 742 245 785 229.3C829.1 213 873 139 916 106.7C960 75.0001 1004 85.0001 1047 122.7C1090.9 160 1135 224 1178 213.3C1221.8 203 1265 117 1309 85.3001C1352.7 53.0001 1396 75.0001 1418 85.3001L1440 96.0001V320H1418.2C1396.4 320 1353 320 1309 320C1265.5 320 1222 320 1178 320C1134.5 320 1091 320 1047 320C1003.6 320 960 320 916 320C872.7 320 829 320 785 320C741.8 320 698 320 655 320C610.9 320 567 320 524 320C480 320 436 320 393 320C349.1 320 305 320 262 320C218.2 320 175 320 131 320C87.3 320 44 320 22 320H0Z" fill="#999B84" fill-opacity="0.5"/>
</svg>
